<svg xmlns="http://www.w3.org/2000/svg" xmlns:xlink="http://www.w3.org/1999/xlink" viewBox="0 0 17 17"><defs><style>.cls-1{fill:url(#linear-gradient);}.cls-2{fill:none;}</style><linearGradient id="linear-gradient" x1="2.12" y1="15.28" x2="13.45" y2="3.95" gradientUnits="userSpaceOnUse"><stop offset="0" stop-color="#0071bc"/><stop offset="1" stop-color="#1b1464"/></linearGradient></defs><g id="Layer_2" data-name="Layer 2"><g id="Layer_1-2" data-name="Layer 1"><path class="cls-1" d="M11.23,0,8.18,5.29h2.19v7a3,3,0,0,1-5.94,0V11H6.09a2.39,2.39,0,0,0,1.55-.52C9.29,9.18,8.78,5.74,6.09,5.74H2.72v6.62h0a4.69,4.69,0,0,0,9.37,0v-7h2.19ZM4.43,7.44H5.94a1,1,0,0,1,0,1.92H4.43ZM10.37,4l.86-1.49L12.09,4Z"/><rect class="cls-2" width="17" height="17"/></g></g></svg>